<svg xmlns="http://www.w3.org/2000/svg" viewBox="0 0 2104.77 516.85"><defs><style>.cls-1{fill:#f89830;}</style></defs><title>Cevo - Orange</title><g id="Layer_2" data-name="Layer 2"><g id="Layer_1-2" data-name="Layer 1"><path class="cls-1" d="M2060.31,113.53a256,256,0,0,1,13.25,21.94c2,3.77,4,7.6,5.82,11.49s3.61,7.82,5.26,11.81l-7.53,2.59c-1.1-4-2.34-8-3.68-12s-2.84-7.87-4.43-11.75A204,204,0,0,0,2057.91,115Z"/><path class="cls-1" d="M2093.12,182.25c1.3,4.15,2.45,8.36,3.54,12.59s2,8.51,2.92,12.82a264.81,264.81,0,0,1,3.91,26.21l-20.34,0a197.74,197.74,0,0,0,1-24.49c-.08-4.11-.32-8.22-.66-12.33s-.84-8.22-1.43-12.32Z"/><path class="cls-1" d="M2104.77,259.58c0,4.49-.16,9-.38,13.52s-.58,9-1.06,13.57a256.93,256.93,0,0,1-4.35,27.16l-35.56-12.13a196.18,196.18,0,0,0,9.31-21.75q2-5.61,3.69-11.38c1.14-3.83,2.09-7.73,3-11.65Z"/><path class="cls-1" d="M2092,339.68A257.17,257.17,0,0,1,2081.75,366a254,254,0,0,1-13.26,25.36l-45.68-35.45a198.91,198.91,0,0,0,15.59-16.42,191.74,191.74,0,0,0,13.79-18.4Z"/><path class="cls-1" d="M2053,414.46a259.34,259.34,0,0,1-19,22.44,253.1,253.1,0,0,1-21.79,20.32l-43-65.43a199,199,0,0,0,19-9.9,195.65,195.65,0,0,0,18.18-12.15Z"/><path class="cls-1" d="M1988.87,474.38c-4.24,2.75-8.55,5.41-13,7.9s-8.92,4.89-13.5,7.14a258.68,258.68,0,0,1-28.34,11.88L1910.32,408a196.93,196.93,0,0,0,20.1-3.37q5-1.1,10-2.49c3.32-.94,6.66-1.92,10-3Z"/><path class="cls-1" d="M1905.45,509.47a258.08,258.08,0,0,1-62.23,6.14L1852,406.4q9.55,1.67,19.36,2.42c6.53.49,13.13.69,19.77.54Z"/><path class="cls-1" d="M1812.94,513.13a260.58,260.58,0,0,1-31.17-6.38q-7.69-2.08-15.28-4.63t-15-5.57l47-107.49q4.21,2.08,8.56,3.94t8.77,3.54q8.87,3.36,18.12,5.85Z"/><path class="cls-1" d="M1723.74,483.3q-7-3.9-13.78-8.17c-4.51-2.86-8.92-5.87-13.25-9s-8.55-6.37-12.66-9.75-8.07-7-12.07-10.47l80.53-88c2.41,2,4.8,4.06,7.15,6.14s4.91,3.93,7.42,5.81,5.06,3.7,7.66,5.44,5.23,3.44,7.9,5.07Z"/><path class="cls-1" d="M1650.64,423.79c-3.49-4.05-6.82-8.23-10.05-12.49s-6.31-8.62-9.27-13.06-5.75-9-8.43-13.6-5.18-9.32-7.57-14.07l101.58-55.18c1.65,2.69,3.41,5.31,5.18,7.9s3.64,5.12,5.53,7.62,3.87,4.93,5.87,7.33,4.09,4.73,6.2,7Z"/><path class="cls-1" d="M1603.31,342.46a257.43,257.43,0,0,1-13.9-61.45L1694,263.39q2.65,9.45,6.16,18.48t7.79,17.58Z"/><path class="cls-1" d="M1588.16,251a256.49,256.49,0,0,1,2.38-30.91c.71-5.1,1.6-10.17,2.6-15.2s2.14-10,3.46-14.95l89.87,14.73c0,3.42-.06,6.83,0,10.22s.33,6.77.6,10.12c.54,6.71,1.44,13.34,2.62,19.87Z"/><path class="cls-1" d="M1605.71,162.14a249.26,249.26,0,0,1,12.69-27.37c2.37-4.41,4.84-8.74,7.47-13s5.35-8.37,8.18-12.41l63.3,34.19q-1.78,5.1-3.25,10.26c-1,3.44-1.89,6.87-2.67,10.33a199.19,199.19,0,0,0-3.6,20.72Z"/><path class="cls-1" d="M1651.56,87.2a258.74,258.74,0,0,1,42.65-38.63L1729,86.07a199.55,199.55,0,0,0-23.66,38.08Z"/><path class="cls-1" d="M1717.08,33.89a259.9,259.9,0,0,1,50.75-22.06l12.67,28.81a190.58,190.58,0,0,0-36.89,28.93Z"/><path class="cls-1" d="M1793.08,5.32c4.41-.91,8.82-1.68,13.25-2.34s8.84-1.22,13.26-1.67A264.28,264.28,0,0,1,1846.06,0l1.32,15.53a195.07,195.07,0,0,0-23.82,5.79c-3.89,1.2-7.72,2.53-11.51,3.95s-7.5,3-11.16,4.67Z"/><path class="cls-1" d="M1871.22,1.23c4.33.44,8.65.94,12.93,1.59s8.55,1.36,12.79,2.22,8.44,1.77,12.6,2.83,8.31,2.19,12.41,3.44l-1.22,2.42c-4.11-.81-8.25-1.47-12.39-2s-8.3-.95-12.46-1.24-8.32-.44-12.48-.46-8.3.07-12.43.32Z"/><path class="cls-1" d="M510.21,324.64c-27.46,108.06-124,192.21-249.79,192.21C106.29,516.85,0,397.27,0,258.2,0,114.71,110.72.44,256,.44,378.22.44,481.86,77.5,510.21,196.2H391.51c-20.37-51.38-67.32-87.69-131.09-87.69-42.52-.89-75.29,14.17-103.64,41.63-24.8,26.57-39.86,65.55-39.86,108.06,0,87.7,61.12,149.7,143.5,149.7,72.63,0,113.38-43.4,131.09-83.26Z"/><path class="cls-1" d="M682.94,297.18c5.31,77.95,74.4,121.35,140.84,120.46,56.69,0,94.78-25.68,116.92-65.55h119.58c-23,54-57.58,94.78-98.32,122.24-40.75,28.35-88.58,42.52-139.07,42.52C673.19,516.85,566,395.5,566,260,566,121.79,674.08.44,821.12.44c72.63,0,136.41,27.46,181.58,74.41,59.35,61.12,81.49,137.29,71.75,222.33ZM960.18,208.6C955.76,162.54,907,97.88,822,98.76c-85.92,0-132.86,62-137.29,109.84Z"/><path class="cls-1" d="M1386.25,501.79H1272.87L1092.17,15.5h120.47l116.92,340.14L1446.48,15.5H1567Z"/></g></g></svg>